<svg width="350" height="89" viewBox="0 0 350 89" fill="none" xmlns="http://www.w3.org/2000/svg">
<path d="M309.684 88.1503V28.5988H330.462V39.9198H331.083C332.168 35.7326 333.887 32.6697 336.238 30.7312C338.616 28.7926 341.394 27.8234 344.573 27.8234C345.503 27.8234 346.421 27.9009 347.325 28.056C348.256 28.1852 349.147 28.3791 350 28.6375V46.8985C348.94 46.5366 347.635 46.2652 346.085 46.0843C344.534 45.9033 343.203 45.8129 342.092 45.8129C339.999 45.8129 338.112 46.291 336.432 47.2474C334.778 48.1779 333.473 49.4961 332.517 51.202C331.561 52.882 331.083 54.8593 331.083 57.1338V88.1503L309.684 88.1503Z" fill="black"/>
<path d="M229.599 26.7379C223.448 26.7379 218.114 28.0173 213.591 30.5762C209.069 33.135 205.567 36.7135 203.086 41.3142C200.605 45.915 199.363 51.2925 199.363 57.4441C199.363 63.8542 200.591 69.3588 203.046 73.9595C205.527 78.5344 209.054 82.0479 213.628 84.5034C218.229 86.933 223.707 88.1503 230.064 88.1503C235.569 88.1503 240.378 87.3228 244.487 85.6685C246.312 84.9274 247.966 84.0468 249.473 83.044C244.984 79.0011 242.106 73.6474 240.618 67.8337H239.679C239.265 68.9451 238.619 69.8997 237.74 70.701C236.861 71.4764 235.802 72.0724 234.562 72.4859C233.347 72.8994 232.003 73.1056 230.53 73.1056C228.411 73.1056 226.603 72.6792 225.105 71.8262C223.606 70.9732 222.453 69.7983 221.652 68.2992C220.851 66.8001 220.453 65.0942 220.453 63.1815V62.2505H239.627C239.032 56.6156 239.585 50.8162 241.129 45.5523C242.516 40.6299 245.258 36.3036 248.845 32.8266C246.773 31.1685 244.432 29.8347 241.812 28.8313C238.168 27.4355 234.096 26.7379 229.599 26.7379ZM230.064 41.7797C231.848 41.7797 233.438 42.1553 234.833 42.9049C236.254 43.6286 237.378 44.6482 238.205 45.9664C239.058 47.2588 239.499 48.7585 239.525 50.4644H220.453C220.505 48.7326 220.956 47.2216 221.809 45.9293C222.688 44.6369 223.849 43.6286 225.296 42.9049C226.743 42.1554 228.333 41.7797 230.064 41.7797Z" fill="black"/>
<path d="M275.913 88.1503C269.556 88.1503 264.077 86.9355 259.477 84.5059C254.903 82.0504 251.375 78.5352 248.894 73.9603C246.439 69.3595 245.211 63.8541 245.211 57.444C245.211 51.2925 246.452 45.9163 248.933 41.3155C251.414 36.7147 254.915 33.1349 259.438 30.5761C263.961 28.0172 269.297 26.7378 275.448 26.7378C279.945 26.7378 284.015 27.4357 287.659 28.8314C291.303 30.2271 294.417 32.2561 297.001 34.9184C299.586 37.5548 301.576 40.7598 302.971 44.5335C304.367 48.3071 305.065 52.559 305.065 57.289V62.2516H251.879V50.4654H285.372C285.346 48.7595 284.907 47.2603 284.054 45.968C283.227 44.6498 282.103 43.6288 280.681 42.9051C279.286 42.1555 277.696 41.7808 275.913 41.7808C274.182 41.7808 272.592 42.1555 271.145 42.9051C269.698 43.6288 268.535 44.6368 267.656 45.9292C266.803 47.2215 266.351 48.7336 266.299 50.4654V63.1821C266.299 65.0948 266.7 66.8007 267.501 68.2998C268.302 69.7989 269.452 70.975 270.951 71.8279C272.45 72.6809 274.259 73.1073 276.378 73.1073C277.852 73.1073 279.195 72.9006 280.41 72.487C281.65 72.0735 282.71 71.479 283.589 70.7036C284.467 69.9023 285.114 68.946 285.527 67.8345H305.065C304.393 71.9701 302.803 75.5628 300.297 78.6127C297.79 81.6368 294.469 83.9889 290.334 85.669C286.225 87.3232 281.418 88.1503 275.913 88.1503Z" fill="black"/>
<path d="M203.196 28.5988L183.193 88.1503H158.383L138.38 28.5988H160.864L170.478 67.9896H171.098L180.712 28.5988H203.196Z" fill="black"/>
<path d="M124.558 22.3955C121.24 22.3955 118.397 21.2994 116.027 19.1072C113.658 16.9151 112.473 14.2786 112.473 11.1977C112.473 8.11687 113.658 5.48037 116.027 3.28822C118.397 1.09607 121.24 0 124.558 0C127.905 0 130.748 1.09607 133.088 3.28822C135.458 5.48037 136.643 8.11687 136.643 11.1977C136.643 14.2786 135.458 16.9151 133.088 19.1072C130.748 21.2994 127.905 22.3955 124.558 22.3955Z" fill="black"/>
<path d="M113.859 88.1503V28.5988H135.257V88.1503H113.859Z" fill="black"/>
<path d="M105.928 8.74829V88.1503H84.5301V8.74829H105.928Z" fill="black"/>
<path d="M77.2202 47.3349C77.2202 56.1746 75.5016 63.6315 72.0644 69.7055C68.6272 75.7537 63.9883 80.3416 58.1477 83.4691C52.3071 86.5707 45.7946 88.1215 38.6101 88.1215C31.3739 88.1215 24.8355 86.5578 18.9949 83.4303C13.1801 80.2769 8.55417 75.6762 5.11699 69.628C1.70566 63.5539 0 56.1229 0 47.3349C0 38.4952 1.70566 31.0513 5.11699 25.0031C8.55417 18.9291 13.1801 14.3412 18.9949 11.2396C24.8355 8.11208 31.3739 6.54834 38.6101 6.54834C45.7946 6.54834 52.3071 8.11208 58.1477 11.2396C63.9883 14.3412 68.6272 18.9291 72.0644 25.0031C75.5016 31.0513 77.2202 38.4952 77.2202 47.3349ZM55.0465 47.3349C55.0465 42.5791 54.4133 38.5728 53.147 35.3161C51.9065 32.0335 50.0587 29.5522 47.6036 27.8721C45.1743 26.1662 42.1765 25.3133 38.6101 25.3133C35.0437 25.3133 32.0329 26.1662 29.5778 27.8721C27.1485 29.5522 25.3007 32.0335 24.0344 35.3161C22.7939 38.5728 22.1737 42.5791 22.1737 47.3349C22.1737 52.0908 22.7939 56.11 24.0344 59.3926C25.3007 62.6493 27.1485 65.1306 29.5778 66.8365C32.0329 68.5166 35.0437 69.3566 38.6101 69.3566C42.1765 69.3566 45.1743 68.5166 47.6036 66.8365C50.0587 65.1306 51.9065 62.6493 53.147 59.3926C54.4133 56.11 55.0465 52.0908 55.0465 47.3349Z" fill="black"/>
</svg>
